<svg xmlns="http://www.w3.org/2000/svg" xmlns:xlink="http://www.w3.org/1999/xlink" width="600" zoomAndPan="magnify" viewBox="0 0 450 449.999984" height="600" preserveAspectRatio="xMidYMid meet" version="1.0"><defs><filter x="0%" y="0%" width="100%" height="100%" id="e3bd98be0b"><feColorMatrix values="0 0 0 0 1 0 0 0 0 1 0 0 0 0 1 0 0 0 1 0" color-interpolation-filters="sRGB"/></filter><mask id="ee24b16415"><g filter="url(#e3bd98be0b)"><rect x="-45" width="540" fill="#000000" y="-44.999998" height="539.99998" fill-opacity="0.04"/></g></mask><clipPath id="fe6d6a1f60"><rect x="0" width="450" y="0" height="450"/></clipPath></defs><g mask="url(#ee24b16415)"><g transform="matrix(1, 0, 0, 1, 0, 0)"><g clip-path="url(#fe6d6a1f60)"><path fill="#004aad" d="M 450 450 L 450 438.75 L 438.75 450 Z M 416.25 450 L 450 416.25 L 450 393.75 L 393.75 450 Z M 371.25 450 L 450 371.25 L 450 348.75 L 348.75 450 Z M 326.25 450 L 450 326.25 L 450 303.75 L 303.75 450 Z M 281.25 450 L 450 281.25 L 450 258.75 L 258.75 450 Z M 236.25 450 L 450 236.25 L 450 213.75 L 213.75 450 Z M 191.25 450 L 450 191.25 L 450 168.75 L 168.75 450 Z M 146.25 450 L 450 146.25 L 450 123.75 L 123.75 450 Z M 101.25 450 L 450 101.25 L 450 78.75 L 78.75 450 Z M 56.25 450 L 450 56.25 L 450 33.75 L 33.75 450 Z M 0 0 L 0 11.25 L 11.25 0 Z M 33.75 0 L 0 33.75 L 0 56.25 L 56.25 0 Z M 78.75 0 L 0 78.75 L 0 101.25 L 101.25 0 Z M 123.75 0 L 0 123.75 L 0 146.25 L 146.25 0 Z M 168.75 0 L 0 168.75 L 0 191.25 L 191.25 0 Z M 213.75 0 L 0 213.75 L 0 236.25 L 236.25 0 Z M 258.75 0 L 0 258.75 L 0 281.25 L 281.25 0 Z M 303.75 0 L 0 303.75 L 0 326.25 L 326.25 0 Z M 348.75 0 L 0 348.75 L 0 371.25 L 371.25 0 Z M 393.75 0 L 0 393.75 L 0 416.25 L 416.25 0 Z M 438.75 0 L 0 438.75 L 0 450 L 11.25 450 L 450 11.25 L 450 0 L 438.75 0 " fill-opacity="1" fill-rule="evenodd"/></g></g></g></svg>